<?xml version="1.0" encoding="UTF-8" standalone="no"?>
<!-- Created with Inkscape (http://www.inkscape.org/) -->
<svg
   xmlns:dc="http://purl.org/dc/elements/1.1/"
   xmlns:cc="http://creativecommons.org/ns#"
   xmlns:rdf="http://www.w3.org/1999/02/22-rdf-syntax-ns#"
   xmlns:svg="http://www.w3.org/2000/svg"
   xmlns="http://www.w3.org/2000/svg"
   xmlns:sodipodi="http://sodipodi.sourceforge.net/DTD/sodipodi-0.dtd"
   xmlns:inkscape="http://www.inkscape.org/namespaces/inkscape"
   width="569.77576"
   height="552.5719"
   id="svg3791"
   sodipodi:version="0.32"
   inkscape:version="0.46"
   sodipodi:docname="eraser.svg"
   inkscape:output_extension="org.inkscape.output.svg.inkscape"
   version="1.0">
  <defs
     id="defs3793">
    <inkscape:perspective
       sodipodi:type="inkscape:persp3d"
       inkscape:vp_x="0 : 526.18109 : 1"
       inkscape:vp_y="0 : 1000 : 0"
       inkscape:vp_z="744.09448 : 526.18109 : 1"
       inkscape:persp3d-origin="372.04724 : 350.78739 : 1"
       id="perspective3799" />
    <inkscape:perspective
       id="perspective4013"
       inkscape:persp3d-origin="372.04724 : 350.78739 : 1"
       inkscape:vp_z="744.09448 : 526.18109 : 1"
       inkscape:vp_y="0 : 1000 : 0"
       inkscape:vp_x="0 : 526.18109 : 1"
       sodipodi:type="inkscape:persp3d" />
  </defs>
  <sodipodi:namedview
     id="base"
     pagecolor="#ffffff"
     bordercolor="#666666"
     borderopacity="1.0"
     gridtolerance="10000"
     guidetolerance="10"
     objecttolerance="10"
     inkscape:pageopacity="0.0"
     inkscape:pageshadow="2"
     inkscape:zoom="0.49497475"
     inkscape:cx="156.32585"
     inkscape:cy="484.41861"
     inkscape:document-units="px"
     inkscape:current-layer="layer1"
     showgrid="false"
     inkscape:window-width="1009"
     inkscape:window-height="669"
     inkscape:window-x="23"
     inkscape:window-y="23" />
  <metadata
     id="metadata3796">
    <rdf:RDF>
      <cc:Work
         rdf:about="">
        <dc:format>image/svg+xml</dc:format>
        <dc:type
           rdf:resource="http://purl.org/dc/dcmitype/StillImage" />
      </cc:Work>
    </rdf:RDF>
  </metadata>
  <g
     inkscape:label="Layer 1"
     inkscape:groupmode="layer"
     id="layer1"
     transform="translate(-88.981742,-255.5046)">
    <g
       id="g4772">
      <path
         sodipodi:nodetypes="ccccccc"
         id="path4534"
         d="M 296.98485,682.64635 L 314.15744,751.33672 L 630.08265,451.8265 L 655.589,416.97623 C 662.94966,396.66497 655.9643,391.07094 650.03316,382.37851 L 622.25397,407.88486 L 296.98485,682.64635 z"
         style="fill:#ac677f;fill-opacity:0.94117647;fill-rule:evenodd;stroke:none;stroke-width:1px;stroke-linecap:butt;stroke-linejoin:miter;stroke-opacity:1" />
      <path
         sodipodi:nodetypes="cccc"
         id="path4536"
         d="M 118.75,586.29075 C 129.61554,569.65629 137.1656,555.24206 152.14286,542.71932 L 159.10714,574.1479 L 118.75,586.29075 z"
         style="fill:#d6a5b8;fill-opacity:1;fill-rule:evenodd;stroke:none;stroke-width:1px;stroke-linecap:butt;stroke-linejoin:miter;stroke-opacity:1" />
      <path
         sodipodi:nodetypes="ccccccccc"
         id="path4019"
         d="M 149.46428,545.21933 C 145.58205,549.14526 145.01829,553.87774 151.07143,559.50504 L 310.71428,699.50504 C 322.14285,706.30295 333.57143,703.84926 345,697.36218 L 651.42857,406.6479 C 653.72723,399.20287 656.32174,391.67415 649.28572,382.36218 C 603.46857,335.83652 556.28458,297.51188 508.57143,262.36219 C 491.23874,250.22095 481.32252,256.62087 471.42857,263.07647 L 149.46428,545.21933 z"
         style="fill:#cb8da4;fill-opacity:1;fill-rule:evenodd;stroke:none;stroke-width:1px;stroke-linecap:butt;stroke-linejoin:miter;stroke-opacity:1" />
      <path
         sodipodi:nodetypes="cccccccccc"
         id="path4530"
         d="M 142.14286,563.79075 C 135.04806,566.50371 127.43548,570.77002 112.85714,595.93361 L 92.142858,630.93361 C 90.530735,638.9705 85.54317,648.40956 92.857143,660.21933 C 139.63464,712.01326 190.60523,759.61409 245,803.79075 C 256.73037,809.93936 267.68643,810.01658 277.85715,797.36218 L 320,730.21933 C 326.696,717.02318 323.51003,709.52535 311.42857,700.21933 L 157.14286,565.21932 C 152.14286,561.39953 147.14286,561.935 142.14286,563.79075 z"
         style="fill:#b47791;fill-opacity:1;fill-rule:evenodd;stroke:none;stroke-width:1px;stroke-linecap:butt;stroke-linejoin:miter;stroke-opacity:1" />
      <path
         sodipodi:nodetypes="ccccccccc"
         id="path4532"
         d="M 261.42857,808.07647 C 269.64103,804.99027 270.85207,809.72919 289.28571,795.21933 L 590.37509,505.26265 C 599.39631,496.42507 607.28411,486.83189 614.28571,476.6479 C 630.06122,457.15642 643.02559,434.85381 657.3954,413.95663 L 345.71429,705.21933 L 320,729.50504 L 276.42857,799.50504 C 269.77988,805.65955 265.4167,807.24307 261.42857,808.07647 z"
         style="fill:#a47179;fill-opacity:1;fill-rule:evenodd;stroke:none;stroke-width:1px;stroke-linecap:butt;stroke-linejoin:miter;stroke-opacity:1" />
    </g>
  </g>
</svg>
