<?xml version="1.0"?><svg width="24" height="24" viewPort="0 0 24 24" version="1.1" xmlns="http://www.w3.org/2000/svg"><rect x="0" y="0" width="1" height="1" fill="hsl(0,100%,0%)" /><rect x="1" y="0" width="1" height="1" fill="hsl(15,100%,0%)" /><rect x="2" y="0" width="1" height="1" fill="hsl(30,100%,0%)" /><rect x="3" y="0" width="1" height="1" fill="hsl(45,100%,0%)" /><rect x="4" y="0" width="1" height="1" fill="hsl(60,100%,0%)" /><rect x="5" y="0" width="1" height="1" fill="hsl(75,100%,0%)" /><rect x="6" y="0" width="1" height="1" fill="hsl(90,100%,0%)" /><rect x="7" y="0" width="1" height="1" fill="hsl(105,100%,0%)" /><rect x="8" y="0" width="1" height="1" fill="hsl(120,100%,0%)" /><rect x="9" y="0" width="1" height="1" fill="hsl(135,100%,0%)" /><rect x="10" y="0" width="1" height="1" fill="hsl(150,100%,0%)" /><rect x="11" y="0" width="1" height="1" fill="hsl(165,100%,0%)" /><rect x="12" y="0" width="1" height="1" fill="hsl(180,100%,0%)" /><rect x="13" y="0" width="1" height="1" fill="hsl(195,100%,0%)" /><rect x="14" y="0" width="1" height="1" fill="hsl(210,100%,0%)" /><rect x="15" y="0" width="1" height="1" fill="hsl(225,100%,0%)" /><rect x="16" y="0" width="1" height="1" fill="hsl(240,100%,0%)" /><rect x="17" y="0" width="1" height="1" fill="hsl(255,100%,0%)" /><rect x="18" y="0" width="1" height="1" fill="hsl(270,100%,0%)" /><rect x="19" y="0" width="1" height="1" fill="hsl(285,100%,0%)" /><rect x="20" y="0" width="1" height="1" fill="hsl(300,100%,0%)" /><rect x="21" y="0" width="1" height="1" fill="hsl(315,100%,0%)" /><rect x="22" y="0" width="1" height="1" fill="hsl(330,100%,0%)" /><rect x="23" y="0" width="1" height="1" fill="hsl(345,100%,0%)" /><rect x="0" y="1" width="1" height="1" fill="hsl(0,100%,4%)" /><rect x="1" y="1" width="1" height="1" fill="hsl(15,100%,4%)" /><rect x="2" y="1" width="1" height="1" fill="hsl(30,100%,4%)" /><rect x="3" y="1" width="1" height="1" fill="hsl(45,100%,4%)" /><rect x="4" y="1" width="1" height="1" fill="hsl(60,100%,4%)" /><rect x="5" y="1" width="1" height="1" fill="hsl(75,100%,4%)" /><rect x="6" y="1" width="1" height="1" fill="hsl(90,100%,4%)" /><rect x="7" y="1" width="1" height="1" fill="hsl(105,100%,4%)" /><rect x="8" y="1" width="1" height="1" fill="hsl(120,100%,4%)" /><rect x="9" y="1" width="1" height="1" fill="hsl(135,100%,4%)" /><rect x="10" y="1" width="1" height="1" fill="hsl(150,100%,4%)" /><rect x="11" y="1" width="1" height="1" fill="hsl(165,100%,4%)" /><rect x="12" y="1" width="1" height="1" fill="hsl(180,100%,4%)" /><rect x="13" y="1" width="1" height="1" fill="hsl(195,100%,4%)" /><rect x="14" y="1" width="1" height="1" fill="hsl(210,100%,4%)" /><rect x="15" y="1" width="1" height="1" fill="hsl(225,100%,4%)" /><rect x="16" y="1" width="1" height="1" fill="hsl(240,100%,4%)" /><rect x="17" y="1" width="1" height="1" fill="hsl(255,100%,4%)" /><rect x="18" y="1" width="1" height="1" fill="hsl(270,100%,4%)" /><rect x="19" y="1" width="1" height="1" fill="hsl(285,100%,4%)" /><rect x="20" y="1" width="1" height="1" fill="hsl(300,100%,4%)" /><rect x="21" y="1" width="1" height="1" fill="hsl(315,100%,4%)" /><rect x="22" y="1" width="1" height="1" fill="hsl(330,100%,4%)" /><rect x="23" y="1" width="1" height="1" fill="hsl(345,100%,4%)" /><rect x="0" y="2" width="1" height="1" fill="hsl(0,100%,8%)" /><rect x="1" y="2" width="1" height="1" fill="hsl(15,100%,8%)" /><rect x="2" y="2" width="1" height="1" fill="hsl(30,100%,8%)" /><rect x="3" y="2" width="1" height="1" fill="hsl(45,100%,8%)" /><rect x="4" y="2" width="1" height="1" fill="hsl(60,100%,8%)" /><rect x="5" y="2" width="1" height="1" fill="hsl(75,100%,8%)" /><rect x="6" y="2" width="1" height="1" fill="hsl(90,100%,8%)" /><rect x="7" y="2" width="1" height="1" fill="hsl(105,100%,8%)" /><rect x="8" y="2" width="1" height="1" fill="hsl(120,100%,8%)" /><rect x="9" y="2" width="1" height="1" fill="hsl(135,100%,8%)" /><rect x="10" y="2" width="1" height="1" fill="hsl(150,100%,8%)" /><rect x="11" y="2" width="1" height="1" fill="hsl(165,100%,8%)" /><rect x="12" y="2" width="1" height="1" fill="hsl(180,100%,8%)" /><rect x="13" y="2" width="1" height="1" fill="hsl(195,100%,8%)" /><rect x="14" y="2" width="1" height="1" fill="hsl(210,100%,8%)" /><rect x="15" y="2" width="1" height="1" fill="hsl(225,100%,8%)" /><rect x="16" y="2" width="1" height="1" fill="hsl(240,100%,8%)" /><rect x="17" y="2" width="1" height="1" fill="hsl(255,100%,8%)" /><rect x="18" y="2" width="1" height="1" fill="hsl(270,100%,8%)" /><rect x="19" y="2" width="1" height="1" fill="hsl(285,100%,8%)" /><rect x="20" y="2" width="1" height="1" fill="hsl(300,100%,8%)" /><rect x="21" y="2" width="1" height="1" fill="hsl(315,100%,8%)" /><rect x="22" y="2" width="1" height="1" fill="hsl(330,100%,8%)" /><rect x="23" y="2" width="1" height="1" fill="hsl(345,100%,8%)" /><rect x="0" y="3" width="1" height="1" fill="hsl(0,100%,12%)" /><rect x="1" y="3" width="1" height="1" fill="hsl(15,100%,12%)" /><rect x="2" y="3" width="1" height="1" fill="hsl(30,100%,12%)" /><rect x="3" y="3" width="1" height="1" fill="hsl(45,100%,12%)" /><rect x="4" y="3" width="1" height="1" fill="hsl(60,100%,12%)" /><rect x="5" y="3" width="1" height="1" fill="hsl(75,100%,12%)" /><rect x="6" y="3" width="1" height="1" fill="hsl(90,100%,12%)" /><rect x="7" y="3" width="1" height="1" fill="hsl(105,100%,12%)" /><rect x="8" y="3" width="1" height="1" fill="hsl(120,100%,12%)" /><rect x="9" y="3" width="1" height="1" fill="hsl(135,100%,12%)" /><rect x="10" y="3" width="1" height="1" fill="hsl(150,100%,12%)" /><rect x="11" y="3" width="1" height="1" fill="hsl(165,100%,12%)" /><rect x="12" y="3" width="1" height="1" fill="hsl(180,100%,12%)" /><rect x="13" y="3" width="1" height="1" fill="hsl(195,100%,12%)" /><rect x="14" y="3" width="1" height="1" fill="hsl(210,100%,12%)" /><rect x="15" y="3" width="1" height="1" fill="hsl(225,100%,12%)" /><rect x="16" y="3" width="1" height="1" fill="hsl(240,100%,12%)" /><rect x="17" y="3" width="1" height="1" fill="hsl(255,100%,12%)" /><rect x="18" y="3" width="1" height="1" fill="hsl(270,100%,12%)" /><rect x="19" y="3" width="1" height="1" fill="hsl(285,100%,12%)" /><rect x="20" y="3" width="1" height="1" fill="hsl(300,100%,12%)" /><rect x="21" y="3" width="1" height="1" fill="hsl(315,100%,12%)" /><rect x="22" y="3" width="1" height="1" fill="hsl(330,100%,12%)" /><rect x="23" y="3" width="1" height="1" fill="hsl(345,100%,12%)" /><rect x="0" y="4" width="1" height="1" fill="hsl(0,100%,16%)" /><rect x="1" y="4" width="1" height="1" fill="hsl(15,100%,16%)" /><rect x="2" y="4" width="1" height="1" fill="hsl(30,100%,16%)" /><rect x="3" y="4" width="1" height="1" fill="hsl(45,100%,16%)" /><rect x="4" y="4" width="1" height="1" fill="hsl(60,100%,16%)" /><rect x="5" y="4" width="1" height="1" fill="hsl(75,100%,16%)" /><rect x="6" y="4" width="1" height="1" fill="hsl(90,100%,16%)" /><rect x="7" y="4" width="1" height="1" fill="hsl(105,100%,16%)" /><rect x="8" y="4" width="1" height="1" fill="hsl(120,100%,16%)" /><rect x="9" y="4" width="1" height="1" fill="hsl(135,100%,16%)" /><rect x="10" y="4" width="1" height="1" fill="hsl(150,100%,16%)" /><rect x="11" y="4" width="1" height="1" fill="hsl(165,100%,16%)" /><rect x="12" y="4" width="1" height="1" fill="hsl(180,100%,16%)" /><rect x="13" y="4" width="1" height="1" fill="hsl(195,100%,16%)" /><rect x="14" y="4" width="1" height="1" fill="hsl(210,100%,16%)" /><rect x="15" y="4" width="1" height="1" fill="hsl(225,100%,16%)" /><rect x="16" y="4" width="1" height="1" fill="hsl(240,100%,16%)" /><rect x="17" y="4" width="1" height="1" fill="hsl(255,100%,16%)" /><rect x="18" y="4" width="1" height="1" fill="hsl(270,100%,16%)" /><rect x="19" y="4" width="1" height="1" fill="hsl(285,100%,16%)" /><rect x="20" y="4" width="1" height="1" fill="hsl(300,100%,16%)" /><rect x="21" y="4" width="1" height="1" fill="hsl(315,100%,16%)" /><rect x="22" y="4" width="1" height="1" fill="hsl(330,100%,16%)" /><rect x="23" y="4" width="1" height="1" fill="hsl(345,100%,16%)" /><rect x="0" y="5" width="1" height="1" fill="hsl(0,100%,20%)" /><rect x="1" y="5" width="1" height="1" fill="hsl(15,100%,20%)" /><rect x="2" y="5" width="1" height="1" fill="hsl(30,100%,20%)" /><rect x="3" y="5" width="1" height="1" fill="hsl(45,100%,20%)" /><rect x="4" y="5" width="1" height="1" fill="hsl(60,100%,20%)" /><rect x="5" y="5" width="1" height="1" fill="hsl(75,100%,20%)" /><rect x="6" y="5" width="1" height="1" fill="hsl(90,100%,20%)" /><rect x="7" y="5" width="1" height="1" fill="hsl(105,100%,20%)" /><rect x="8" y="5" width="1" height="1" fill="hsl(120,100%,20%)" /><rect x="9" y="5" width="1" height="1" fill="hsl(135,100%,20%)" /><rect x="10" y="5" width="1" height="1" fill="hsl(150,100%,20%)" /><rect x="11" y="5" width="1" height="1" fill="hsl(165,100%,20%)" /><rect x="12" y="5" width="1" height="1" fill="hsl(180,100%,20%)" /><rect x="13" y="5" width="1" height="1" fill="hsl(195,100%,20%)" /><rect x="14" y="5" width="1" height="1" fill="hsl(210,100%,20%)" /><rect x="15" y="5" width="1" height="1" fill="hsl(225,100%,20%)" /><rect x="16" y="5" width="1" height="1" fill="hsl(240,100%,20%)" /><rect x="17" y="5" width="1" height="1" fill="hsl(255,100%,20%)" /><rect x="18" y="5" width="1" height="1" fill="hsl(270,100%,20%)" /><rect x="19" y="5" width="1" height="1" fill="hsl(285,100%,20%)" /><rect x="20" y="5" width="1" height="1" fill="hsl(300,100%,20%)" /><rect x="21" y="5" width="1" height="1" fill="hsl(315,100%,20%)" /><rect x="22" y="5" width="1" height="1" fill="hsl(330,100%,20%)" /><rect x="23" y="5" width="1" height="1" fill="hsl(345,100%,20%)" /><rect x="0" y="6" width="1" height="1" fill="hsl(0,100%,25%)" /><rect x="1" y="6" width="1" height="1" fill="hsl(15,100%,25%)" /><rect x="2" y="6" width="1" height="1" fill="hsl(30,100%,25%)" /><rect x="3" y="6" width="1" height="1" fill="hsl(45,100%,25%)" /><rect x="4" y="6" width="1" height="1" fill="hsl(60,100%,25%)" /><rect x="5" y="6" width="1" height="1" fill="hsl(75,100%,25%)" /><rect x="6" y="6" width="1" height="1" fill="hsl(90,100%,25%)" /><rect x="7" y="6" width="1" height="1" fill="hsl(105,100%,25%)" /><rect x="8" y="6" width="1" height="1" fill="hsl(120,100%,25%)" /><rect x="9" y="6" width="1" height="1" fill="hsl(135,100%,25%)" /><rect x="10" y="6" width="1" height="1" fill="hsl(150,100%,25%)" /><rect x="11" y="6" width="1" height="1" fill="hsl(165,100%,25%)" /><rect x="12" y="6" width="1" height="1" fill="hsl(180,100%,25%)" /><rect x="13" y="6" width="1" height="1" fill="hsl(195,100%,25%)" /><rect x="14" y="6" width="1" height="1" fill="hsl(210,100%,25%)" /><rect x="15" y="6" width="1" height="1" fill="hsl(225,100%,25%)" /><rect x="16" y="6" width="1" height="1" fill="hsl(240,100%,25%)" /><rect x="17" y="6" width="1" height="1" fill="hsl(255,100%,25%)" /><rect x="18" y="6" width="1" height="1" fill="hsl(270,100%,25%)" /><rect x="19" y="6" width="1" height="1" fill="hsl(285,100%,25%)" /><rect x="20" y="6" width="1" height="1" fill="hsl(300,100%,25%)" /><rect x="21" y="6" width="1" height="1" fill="hsl(315,100%,25%)" /><rect x="22" y="6" width="1" height="1" fill="hsl(330,100%,25%)" /><rect x="23" y="6" width="1" height="1" fill="hsl(345,100%,25%)" /><rect x="0" y="7" width="1" height="1" fill="hsl(0,100%,29%)" /><rect x="1" y="7" width="1" height="1" fill="hsl(15,100%,29%)" /><rect x="2" y="7" width="1" height="1" fill="hsl(30,100%,29%)" /><rect x="3" y="7" width="1" height="1" fill="hsl(45,100%,29%)" /><rect x="4" y="7" width="1" height="1" fill="hsl(60,100%,29%)" /><rect x="5" y="7" width="1" height="1" fill="hsl(75,100%,29%)" /><rect x="6" y="7" width="1" height="1" fill="hsl(90,100%,29%)" /><rect x="7" y="7" width="1" height="1" fill="hsl(105,100%,29%)" /><rect x="8" y="7" width="1" height="1" fill="hsl(120,100%,29%)" /><rect x="9" y="7" width="1" height="1" fill="hsl(135,100%,29%)" /><rect x="10" y="7" width="1" height="1" fill="hsl(150,100%,29%)" /><rect x="11" y="7" width="1" height="1" fill="hsl(165,100%,29%)" /><rect x="12" y="7" width="1" height="1" fill="hsl(180,100%,29%)" /><rect x="13" y="7" width="1" height="1" fill="hsl(195,100%,29%)" /><rect x="14" y="7" width="1" height="1" fill="hsl(210,100%,29%)" /><rect x="15" y="7" width="1" height="1" fill="hsl(225,100%,29%)" /><rect x="16" y="7" width="1" height="1" fill="hsl(240,100%,29%)" /><rect x="17" y="7" width="1" height="1" fill="hsl(255,100%,29%)" /><rect x="18" y="7" width="1" height="1" fill="hsl(270,100%,29%)" /><rect x="19" y="7" width="1" height="1" fill="hsl(285,100%,29%)" /><rect x="20" y="7" width="1" height="1" fill="hsl(300,100%,29%)" /><rect x="21" y="7" width="1" height="1" fill="hsl(315,100%,29%)" /><rect x="22" y="7" width="1" height="1" fill="hsl(330,100%,29%)" /><rect x="23" y="7" width="1" height="1" fill="hsl(345,100%,29%)" /><rect x="0" y="8" width="1" height="1" fill="hsl(0,100%,33%)" /><rect x="1" y="8" width="1" height="1" fill="hsl(15,100%,33%)" /><rect x="2" y="8" width="1" height="1" fill="hsl(30,100%,33%)" /><rect x="3" y="8" width="1" height="1" fill="hsl(45,100%,33%)" /><rect x="4" y="8" width="1" height="1" fill="hsl(60,100%,33%)" /><rect x="5" y="8" width="1" height="1" fill="hsl(75,100%,33%)" /><rect x="6" y="8" width="1" height="1" fill="hsl(90,100%,33%)" /><rect x="7" y="8" width="1" height="1" fill="hsl(105,100%,33%)" /><rect x="8" y="8" width="1" height="1" fill="hsl(120,100%,33%)" /><rect x="9" y="8" width="1" height="1" fill="hsl(135,100%,33%)" /><rect x="10" y="8" width="1" height="1" fill="hsl(150,100%,33%)" /><rect x="11" y="8" width="1" height="1" fill="hsl(165,100%,33%)" /><rect x="12" y="8" width="1" height="1" fill="hsl(180,100%,33%)" /><rect x="13" y="8" width="1" height="1" fill="hsl(195,100%,33%)" /><rect x="14" y="8" width="1" height="1" fill="hsl(210,100%,33%)" /><rect x="15" y="8" width="1" height="1" fill="hsl(225,100%,33%)" /><rect x="16" y="8" width="1" height="1" fill="hsl(240,100%,33%)" /><rect x="17" y="8" width="1" height="1" fill="hsl(255,100%,33%)" /><rect x="18" y="8" width="1" height="1" fill="hsl(270,100%,33%)" /><rect x="19" y="8" width="1" height="1" fill="hsl(285,100%,33%)" /><rect x="20" y="8" width="1" height="1" fill="hsl(300,100%,33%)" /><rect x="21" y="8" width="1" height="1" fill="hsl(315,100%,33%)" /><rect x="22" y="8" width="1" height="1" fill="hsl(330,100%,33%)" /><rect x="23" y="8" width="1" height="1" fill="hsl(345,100%,33%)" /><rect x="0" y="9" width="1" height="1" fill="hsl(0,100%,37%)" /><rect x="1" y="9" width="1" height="1" fill="hsl(15,100%,37%)" /><rect x="2" y="9" width="1" height="1" fill="hsl(30,100%,37%)" /><rect x="3" y="9" width="1" height="1" fill="hsl(45,100%,37%)" /><rect x="4" y="9" width="1" height="1" fill="hsl(60,100%,37%)" /><rect x="5" y="9" width="1" height="1" fill="hsl(75,100%,37%)" /><rect x="6" y="9" width="1" height="1" fill="hsl(90,100%,37%)" /><rect x="7" y="9" width="1" height="1" fill="hsl(105,100%,37%)" /><rect x="8" y="9" width="1" height="1" fill="hsl(120,100%,37%)" /><rect x="9" y="9" width="1" height="1" fill="hsl(135,100%,37%)" /><rect x="10" y="9" width="1" height="1" fill="hsl(150,100%,37%)" /><rect x="11" y="9" width="1" height="1" fill="hsl(165,100%,37%)" /><rect x="12" y="9" width="1" height="1" fill="hsl(180,100%,37%)" /><rect x="13" y="9" width="1" height="1" fill="hsl(195,100%,37%)" /><rect x="14" y="9" width="1" height="1" fill="hsl(210,100%,37%)" /><rect x="15" y="9" width="1" height="1" fill="hsl(225,100%,37%)" /><rect x="16" y="9" width="1" height="1" fill="hsl(240,100%,37%)" /><rect x="17" y="9" width="1" height="1" fill="hsl(255,100%,37%)" /><rect x="18" y="9" width="1" height="1" fill="hsl(270,100%,37%)" /><rect x="19" y="9" width="1" height="1" fill="hsl(285,100%,37%)" /><rect x="20" y="9" width="1" height="1" fill="hsl(300,100%,37%)" /><rect x="21" y="9" width="1" height="1" fill="hsl(315,100%,37%)" /><rect x="22" y="9" width="1" height="1" fill="hsl(330,100%,37%)" /><rect x="23" y="9" width="1" height="1" fill="hsl(345,100%,37%)" /><rect x="0" y="10" width="1" height="1" fill="hsl(0,100%,41%)" /><rect x="1" y="10" width="1" height="1" fill="hsl(15,100%,41%)" /><rect x="2" y="10" width="1" height="1" fill="hsl(30,100%,41%)" /><rect x="3" y="10" width="1" height="1" fill="hsl(45,100%,41%)" /><rect x="4" y="10" width="1" height="1" fill="hsl(60,100%,41%)" /><rect x="5" y="10" width="1" height="1" fill="hsl(75,100%,41%)" /><rect x="6" y="10" width="1" height="1" fill="hsl(90,100%,41%)" /><rect x="7" y="10" width="1" height="1" fill="hsl(105,100%,41%)" /><rect x="8" y="10" width="1" height="1" fill="hsl(120,100%,41%)" /><rect x="9" y="10" width="1" height="1" fill="hsl(135,100%,41%)" /><rect x="10" y="10" width="1" height="1" fill="hsl(150,100%,41%)" /><rect x="11" y="10" width="1" height="1" fill="hsl(165,100%,41%)" /><rect x="12" y="10" width="1" height="1" fill="hsl(180,100%,41%)" /><rect x="13" y="10" width="1" height="1" fill="hsl(195,100%,41%)" /><rect x="14" y="10" width="1" height="1" fill="hsl(210,100%,41%)" /><rect x="15" y="10" width="1" height="1" fill="hsl(225,100%,41%)" /><rect x="16" y="10" width="1" height="1" fill="hsl(240,100%,41%)" /><rect x="17" y="10" width="1" height="1" fill="hsl(255,100%,41%)" /><rect x="18" y="10" width="1" height="1" fill="hsl(270,100%,41%)" /><rect x="19" y="10" width="1" height="1" fill="hsl(285,100%,41%)" /><rect x="20" y="10" width="1" height="1" fill="hsl(300,100%,41%)" /><rect x="21" y="10" width="1" height="1" fill="hsl(315,100%,41%)" /><rect x="22" y="10" width="1" height="1" fill="hsl(330,100%,41%)" /><rect x="23" y="10" width="1" height="1" fill="hsl(345,100%,41%)" /><rect x="0" y="11" width="1" height="1" fill="hsl(0,100%,45%)" /><rect x="1" y="11" width="1" height="1" fill="hsl(15,100%,45%)" /><rect x="2" y="11" width="1" height="1" fill="hsl(30,100%,45%)" /><rect x="3" y="11" width="1" height="1" fill="hsl(45,100%,45%)" /><rect x="4" y="11" width="1" height="1" fill="hsl(60,100%,45%)" /><rect x="5" y="11" width="1" height="1" fill="hsl(75,100%,45%)" /><rect x="6" y="11" width="1" height="1" fill="hsl(90,100%,45%)" /><rect x="7" y="11" width="1" height="1" fill="hsl(105,100%,45%)" /><rect x="8" y="11" width="1" height="1" fill="hsl(120,100%,45%)" /><rect x="9" y="11" width="1" height="1" fill="hsl(135,100%,45%)" /><rect x="10" y="11" width="1" height="1" fill="hsl(150,100%,45%)" /><rect x="11" y="11" width="1" height="1" fill="hsl(165,100%,45%)" /><rect x="12" y="11" width="1" height="1" fill="hsl(180,100%,45%)" /><rect x="13" y="11" width="1" height="1" fill="hsl(195,100%,45%)" /><rect x="14" y="11" width="1" height="1" fill="hsl(210,100%,45%)" /><rect x="15" y="11" width="1" height="1" fill="hsl(225,100%,45%)" /><rect x="16" y="11" width="1" height="1" fill="hsl(240,100%,45%)" /><rect x="17" y="11" width="1" height="1" fill="hsl(255,100%,45%)" /><rect x="18" y="11" width="1" height="1" fill="hsl(270,100%,45%)" /><rect x="19" y="11" width="1" height="1" fill="hsl(285,100%,45%)" /><rect x="20" y="11" width="1" height="1" fill="hsl(300,100%,45%)" /><rect x="21" y="11" width="1" height="1" fill="hsl(315,100%,45%)" /><rect x="22" y="11" width="1" height="1" fill="hsl(330,100%,45%)" /><rect x="23" y="11" width="1" height="1" fill="hsl(345,100%,45%)" /><rect x="0" y="12" width="1" height="1" fill="hsl(0,100%,50%)" /><rect x="1" y="12" width="1" height="1" fill="hsl(15,100%,50%)" /><rect x="2" y="12" width="1" height="1" fill="hsl(30,100%,50%)" /><rect x="3" y="12" width="1" height="1" fill="hsl(45,100%,50%)" /><rect x="4" y="12" width="1" height="1" fill="hsl(60,100%,50%)" /><rect x="5" y="12" width="1" height="1" fill="hsl(75,100%,50%)" /><rect x="6" y="12" width="1" height="1" fill="hsl(90,100%,50%)" /><rect x="7" y="12" width="1" height="1" fill="hsl(105,100%,50%)" /><rect x="8" y="12" width="1" height="1" fill="hsl(120,100%,50%)" /><rect x="9" y="12" width="1" height="1" fill="hsl(135,100%,50%)" /><rect x="10" y="12" width="1" height="1" fill="hsl(150,100%,50%)" /><rect x="11" y="12" width="1" height="1" fill="hsl(165,100%,50%)" /><rect x="12" y="12" width="1" height="1" fill="hsl(180,100%,50%)" /><rect x="13" y="12" width="1" height="1" fill="hsl(195,100%,50%)" /><rect x="14" y="12" width="1" height="1" fill="hsl(210,100%,50%)" /><rect x="15" y="12" width="1" height="1" fill="hsl(225,100%,50%)" /><rect x="16" y="12" width="1" height="1" fill="hsl(240,100%,50%)" /><rect x="17" y="12" width="1" height="1" fill="hsl(255,100%,50%)" /><rect x="18" y="12" width="1" height="1" fill="hsl(270,100%,50%)" /><rect x="19" y="12" width="1" height="1" fill="hsl(285,100%,50%)" /><rect x="20" y="12" width="1" height="1" fill="hsl(300,100%,50%)" /><rect x="21" y="12" width="1" height="1" fill="hsl(315,100%,50%)" /><rect x="22" y="12" width="1" height="1" fill="hsl(330,100%,50%)" /><rect x="23" y="12" width="1" height="1" fill="hsl(345,100%,50%)" /><rect x="0" y="13" width="1" height="1" fill="hsl(0,100%,54%)" /><rect x="1" y="13" width="1" height="1" fill="hsl(15,100%,54%)" /><rect x="2" y="13" width="1" height="1" fill="hsl(30,100%,54%)" /><rect x="3" y="13" width="1" height="1" fill="hsl(45,100%,54%)" /><rect x="4" y="13" width="1" height="1" fill="hsl(60,100%,54%)" /><rect x="5" y="13" width="1" height="1" fill="hsl(75,100%,54%)" /><rect x="6" y="13" width="1" height="1" fill="hsl(90,100%,54%)" /><rect x="7" y="13" width="1" height="1" fill="hsl(105,100%,54%)" /><rect x="8" y="13" width="1" height="1" fill="hsl(120,100%,54%)" /><rect x="9" y="13" width="1" height="1" fill="hsl(135,100%,54%)" /><rect x="10" y="13" width="1" height="1" fill="hsl(150,100%,54%)" /><rect x="11" y="13" width="1" height="1" fill="hsl(165,100%,54%)" /><rect x="12" y="13" width="1" height="1" fill="hsl(180,100%,54%)" /><rect x="13" y="13" width="1" height="1" fill="hsl(195,100%,54%)" /><rect x="14" y="13" width="1" height="1" fill="hsl(210,100%,54%)" /><rect x="15" y="13" width="1" height="1" fill="hsl(225,100%,54%)" /><rect x="16" y="13" width="1" height="1" fill="hsl(240,100%,54%)" /><rect x="17" y="13" width="1" height="1" fill="hsl(255,100%,54%)" /><rect x="18" y="13" width="1" height="1" fill="hsl(270,100%,54%)" /><rect x="19" y="13" width="1" height="1" fill="hsl(285,100%,54%)" /><rect x="20" y="13" width="1" height="1" fill="hsl(300,100%,54%)" /><rect x="21" y="13" width="1" height="1" fill="hsl(315,100%,54%)" /><rect x="22" y="13" width="1" height="1" fill="hsl(330,100%,54%)" /><rect x="23" y="13" width="1" height="1" fill="hsl(345,100%,54%)" /><rect x="0" y="14" width="1" height="1" fill="hsl(0,100%,58%)" /><rect x="1" y="14" width="1" height="1" fill="hsl(15,100%,58%)" /><rect x="2" y="14" width="1" height="1" fill="hsl(30,100%,58%)" /><rect x="3" y="14" width="1" height="1" fill="hsl(45,100%,58%)" /><rect x="4" y="14" width="1" height="1" fill="hsl(60,100%,58%)" /><rect x="5" y="14" width="1" height="1" fill="hsl(75,100%,58%)" /><rect x="6" y="14" width="1" height="1" fill="hsl(90,100%,58%)" /><rect x="7" y="14" width="1" height="1" fill="hsl(105,100%,58%)" /><rect x="8" y="14" width="1" height="1" fill="hsl(120,100%,58%)" /><rect x="9" y="14" width="1" height="1" fill="hsl(135,100%,58%)" /><rect x="10" y="14" width="1" height="1" fill="hsl(150,100%,58%)" /><rect x="11" y="14" width="1" height="1" fill="hsl(165,100%,58%)" /><rect x="12" y="14" width="1" height="1" fill="hsl(180,100%,58%)" /><rect x="13" y="14" width="1" height="1" fill="hsl(195,100%,58%)" /><rect x="14" y="14" width="1" height="1" fill="hsl(210,100%,58%)" /><rect x="15" y="14" width="1" height="1" fill="hsl(225,100%,58%)" /><rect x="16" y="14" width="1" height="1" fill="hsl(240,100%,58%)" /><rect x="17" y="14" width="1" height="1" fill="hsl(255,100%,58%)" /><rect x="18" y="14" width="1" height="1" fill="hsl(270,100%,58%)" /><rect x="19" y="14" width="1" height="1" fill="hsl(285,100%,58%)" /><rect x="20" y="14" width="1" height="1" fill="hsl(300,100%,58%)" /><rect x="21" y="14" width="1" height="1" fill="hsl(315,100%,58%)" /><rect x="22" y="14" width="1" height="1" fill="hsl(330,100%,58%)" /><rect x="23" y="14" width="1" height="1" fill="hsl(345,100%,58%)" /><rect x="0" y="15" width="1" height="1" fill="hsl(0,100%,62%)" /><rect x="1" y="15" width="1" height="1" fill="hsl(15,100%,62%)" /><rect x="2" y="15" width="1" height="1" fill="hsl(30,100%,62%)" /><rect x="3" y="15" width="1" height="1" fill="hsl(45,100%,62%)" /><rect x="4" y="15" width="1" height="1" fill="hsl(60,100%,62%)" /><rect x="5" y="15" width="1" height="1" fill="hsl(75,100%,62%)" /><rect x="6" y="15" width="1" height="1" fill="hsl(90,100%,62%)" /><rect x="7" y="15" width="1" height="1" fill="hsl(105,100%,62%)" /><rect x="8" y="15" width="1" height="1" fill="hsl(120,100%,62%)" /><rect x="9" y="15" width="1" height="1" fill="hsl(135,100%,62%)" /><rect x="10" y="15" width="1" height="1" fill="hsl(150,100%,62%)" /><rect x="11" y="15" width="1" height="1" fill="hsl(165,100%,62%)" /><rect x="12" y="15" width="1" height="1" fill="hsl(180,100%,62%)" /><rect x="13" y="15" width="1" height="1" fill="hsl(195,100%,62%)" /><rect x="14" y="15" width="1" height="1" fill="hsl(210,100%,62%)" /><rect x="15" y="15" width="1" height="1" fill="hsl(225,100%,62%)" /><rect x="16" y="15" width="1" height="1" fill="hsl(240,100%,62%)" /><rect x="17" y="15" width="1" height="1" fill="hsl(255,100%,62%)" /><rect x="18" y="15" width="1" height="1" fill="hsl(270,100%,62%)" /><rect x="19" y="15" width="1" height="1" fill="hsl(285,100%,62%)" /><rect x="20" y="15" width="1" height="1" fill="hsl(300,100%,62%)" /><rect x="21" y="15" width="1" height="1" fill="hsl(315,100%,62%)" /><rect x="22" y="15" width="1" height="1" fill="hsl(330,100%,62%)" /><rect x="23" y="15" width="1" height="1" fill="hsl(345,100%,62%)" /><rect x="0" y="16" width="1" height="1" fill="hsl(0,100%,66%)" /><rect x="1" y="16" width="1" height="1" fill="hsl(15,100%,66%)" /><rect x="2" y="16" width="1" height="1" fill="hsl(30,100%,66%)" /><rect x="3" y="16" width="1" height="1" fill="hsl(45,100%,66%)" /><rect x="4" y="16" width="1" height="1" fill="hsl(60,100%,66%)" /><rect x="5" y="16" width="1" height="1" fill="hsl(75,100%,66%)" /><rect x="6" y="16" width="1" height="1" fill="hsl(90,100%,66%)" /><rect x="7" y="16" width="1" height="1" fill="hsl(105,100%,66%)" /><rect x="8" y="16" width="1" height="1" fill="hsl(120,100%,66%)" /><rect x="9" y="16" width="1" height="1" fill="hsl(135,100%,66%)" /><rect x="10" y="16" width="1" height="1" fill="hsl(150,100%,66%)" /><rect x="11" y="16" width="1" height="1" fill="hsl(165,100%,66%)" /><rect x="12" y="16" width="1" height="1" fill="hsl(180,100%,66%)" /><rect x="13" y="16" width="1" height="1" fill="hsl(195,100%,66%)" /><rect x="14" y="16" width="1" height="1" fill="hsl(210,100%,66%)" /><rect x="15" y="16" width="1" height="1" fill="hsl(225,100%,66%)" /><rect x="16" y="16" width="1" height="1" fill="hsl(240,100%,66%)" /><rect x="17" y="16" width="1" height="1" fill="hsl(255,100%,66%)" /><rect x="18" y="16" width="1" height="1" fill="hsl(270,100%,66%)" /><rect x="19" y="16" width="1" height="1" fill="hsl(285,100%,66%)" /><rect x="20" y="16" width="1" height="1" fill="hsl(300,100%,66%)" /><rect x="21" y="16" width="1" height="1" fill="hsl(315,100%,66%)" /><rect x="22" y="16" width="1" height="1" fill="hsl(330,100%,66%)" /><rect x="23" y="16" width="1" height="1" fill="hsl(345,100%,66%)" /><rect x="0" y="17" width="1" height="1" fill="hsl(0,100%,70%)" /><rect x="1" y="17" width="1" height="1" fill="hsl(15,100%,70%)" /><rect x="2" y="17" width="1" height="1" fill="hsl(30,100%,70%)" /><rect x="3" y="17" width="1" height="1" fill="hsl(45,100%,70%)" /><rect x="4" y="17" width="1" height="1" fill="hsl(60,100%,70%)" /><rect x="5" y="17" width="1" height="1" fill="hsl(75,100%,70%)" /><rect x="6" y="17" width="1" height="1" fill="hsl(90,100%,70%)" /><rect x="7" y="17" width="1" height="1" fill="hsl(105,100%,70%)" /><rect x="8" y="17" width="1" height="1" fill="hsl(120,100%,70%)" /><rect x="9" y="17" width="1" height="1" fill="hsl(135,100%,70%)" /><rect x="10" y="17" width="1" height="1" fill="hsl(150,100%,70%)" /><rect x="11" y="17" width="1" height="1" fill="hsl(165,100%,70%)" /><rect x="12" y="17" width="1" height="1" fill="hsl(180,100%,70%)" /><rect x="13" y="17" width="1" height="1" fill="hsl(195,100%,70%)" /><rect x="14" y="17" width="1" height="1" fill="hsl(210,100%,70%)" /><rect x="15" y="17" width="1" height="1" fill="hsl(225,100%,70%)" /><rect x="16" y="17" width="1" height="1" fill="hsl(240,100%,70%)" /><rect x="17" y="17" width="1" height="1" fill="hsl(255,100%,70%)" /><rect x="18" y="17" width="1" height="1" fill="hsl(270,100%,70%)" /><rect x="19" y="17" width="1" height="1" fill="hsl(285,100%,70%)" /><rect x="20" y="17" width="1" height="1" fill="hsl(300,100%,70%)" /><rect x="21" y="17" width="1" height="1" fill="hsl(315,100%,70%)" /><rect x="22" y="17" width="1" height="1" fill="hsl(330,100%,70%)" /><rect x="23" y="17" width="1" height="1" fill="hsl(345,100%,70%)" /><rect x="0" y="18" width="1" height="1" fill="hsl(0,100%,75%)" /><rect x="1" y="18" width="1" height="1" fill="hsl(15,100%,75%)" /><rect x="2" y="18" width="1" height="1" fill="hsl(30,100%,75%)" /><rect x="3" y="18" width="1" height="1" fill="hsl(45,100%,75%)" /><rect x="4" y="18" width="1" height="1" fill="hsl(60,100%,75%)" /><rect x="5" y="18" width="1" height="1" fill="hsl(75,100%,75%)" /><rect x="6" y="18" width="1" height="1" fill="hsl(90,100%,75%)" /><rect x="7" y="18" width="1" height="1" fill="hsl(105,100%,75%)" /><rect x="8" y="18" width="1" height="1" fill="hsl(120,100%,75%)" /><rect x="9" y="18" width="1" height="1" fill="hsl(135,100%,75%)" /><rect x="10" y="18" width="1" height="1" fill="hsl(150,100%,75%)" /><rect x="11" y="18" width="1" height="1" fill="hsl(165,100%,75%)" /><rect x="12" y="18" width="1" height="1" fill="hsl(180,100%,75%)" /><rect x="13" y="18" width="1" height="1" fill="hsl(195,100%,75%)" /><rect x="14" y="18" width="1" height="1" fill="hsl(210,100%,75%)" /><rect x="15" y="18" width="1" height="1" fill="hsl(225,100%,75%)" /><rect x="16" y="18" width="1" height="1" fill="hsl(240,100%,75%)" /><rect x="17" y="18" width="1" height="1" fill="hsl(255,100%,75%)" /><rect x="18" y="18" width="1" height="1" fill="hsl(270,100%,75%)" /><rect x="19" y="18" width="1" height="1" fill="hsl(285,100%,75%)" /><rect x="20" y="18" width="1" height="1" fill="hsl(300,100%,75%)" /><rect x="21" y="18" width="1" height="1" fill="hsl(315,100%,75%)" /><rect x="22" y="18" width="1" height="1" fill="hsl(330,100%,75%)" /><rect x="23" y="18" width="1" height="1" fill="hsl(345,100%,75%)" /><rect x="0" y="19" width="1" height="1" fill="hsl(0,100%,79%)" /><rect x="1" y="19" width="1" height="1" fill="hsl(15,100%,79%)" /><rect x="2" y="19" width="1" height="1" fill="hsl(30,100%,79%)" /><rect x="3" y="19" width="1" height="1" fill="hsl(45,100%,79%)" /><rect x="4" y="19" width="1" height="1" fill="hsl(60,100%,79%)" /><rect x="5" y="19" width="1" height="1" fill="hsl(75,100%,79%)" /><rect x="6" y="19" width="1" height="1" fill="hsl(90,100%,79%)" /><rect x="7" y="19" width="1" height="1" fill="hsl(105,100%,79%)" /><rect x="8" y="19" width="1" height="1" fill="hsl(120,100%,79%)" /><rect x="9" y="19" width="1" height="1" fill="hsl(135,100%,79%)" /><rect x="10" y="19" width="1" height="1" fill="hsl(150,100%,79%)" /><rect x="11" y="19" width="1" height="1" fill="hsl(165,100%,79%)" /><rect x="12" y="19" width="1" height="1" fill="hsl(180,100%,79%)" /><rect x="13" y="19" width="1" height="1" fill="hsl(195,100%,79%)" /><rect x="14" y="19" width="1" height="1" fill="hsl(210,100%,79%)" /><rect x="15" y="19" width="1" height="1" fill="hsl(225,100%,79%)" /><rect x="16" y="19" width="1" height="1" fill="hsl(240,100%,79%)" /><rect x="17" y="19" width="1" height="1" fill="hsl(255,100%,79%)" /><rect x="18" y="19" width="1" height="1" fill="hsl(270,100%,79%)" /><rect x="19" y="19" width="1" height="1" fill="hsl(285,100%,79%)" /><rect x="20" y="19" width="1" height="1" fill="hsl(300,100%,79%)" /><rect x="21" y="19" width="1" height="1" fill="hsl(315,100%,79%)" /><rect x="22" y="19" width="1" height="1" fill="hsl(330,100%,79%)" /><rect x="23" y="19" width="1" height="1" fill="hsl(345,100%,79%)" /><rect x="0" y="20" width="1" height="1" fill="hsl(0,100%,83%)" /><rect x="1" y="20" width="1" height="1" fill="hsl(15,100%,83%)" /><rect x="2" y="20" width="1" height="1" fill="hsl(30,100%,83%)" /><rect x="3" y="20" width="1" height="1" fill="hsl(45,100%,83%)" /><rect x="4" y="20" width="1" height="1" fill="hsl(60,100%,83%)" /><rect x="5" y="20" width="1" height="1" fill="hsl(75,100%,83%)" /><rect x="6" y="20" width="1" height="1" fill="hsl(90,100%,83%)" /><rect x="7" y="20" width="1" height="1" fill="hsl(105,100%,83%)" /><rect x="8" y="20" width="1" height="1" fill="hsl(120,100%,83%)" /><rect x="9" y="20" width="1" height="1" fill="hsl(135,100%,83%)" /><rect x="10" y="20" width="1" height="1" fill="hsl(150,100%,83%)" /><rect x="11" y="20" width="1" height="1" fill="hsl(165,100%,83%)" /><rect x="12" y="20" width="1" height="1" fill="hsl(180,100%,83%)" /><rect x="13" y="20" width="1" height="1" fill="hsl(195,100%,83%)" /><rect x="14" y="20" width="1" height="1" fill="hsl(210,100%,83%)" /><rect x="15" y="20" width="1" height="1" fill="hsl(225,100%,83%)" /><rect x="16" y="20" width="1" height="1" fill="hsl(240,100%,83%)" /><rect x="17" y="20" width="1" height="1" fill="hsl(255,100%,83%)" /><rect x="18" y="20" width="1" height="1" fill="hsl(270,100%,83%)" /><rect x="19" y="20" width="1" height="1" fill="hsl(285,100%,83%)" /><rect x="20" y="20" width="1" height="1" fill="hsl(300,100%,83%)" /><rect x="21" y="20" width="1" height="1" fill="hsl(315,100%,83%)" /><rect x="22" y="20" width="1" height="1" fill="hsl(330,100%,83%)" /><rect x="23" y="20" width="1" height="1" fill="hsl(345,100%,83%)" /><rect x="0" y="21" width="1" height="1" fill="hsl(0,100%,87%)" /><rect x="1" y="21" width="1" height="1" fill="hsl(15,100%,87%)" /><rect x="2" y="21" width="1" height="1" fill="hsl(30,100%,87%)" /><rect x="3" y="21" width="1" height="1" fill="hsl(45,100%,87%)" /><rect x="4" y="21" width="1" height="1" fill="hsl(60,100%,87%)" /><rect x="5" y="21" width="1" height="1" fill="hsl(75,100%,87%)" /><rect x="6" y="21" width="1" height="1" fill="hsl(90,100%,87%)" /><rect x="7" y="21" width="1" height="1" fill="hsl(105,100%,87%)" /><rect x="8" y="21" width="1" height="1" fill="hsl(120,100%,87%)" /><rect x="9" y="21" width="1" height="1" fill="hsl(135,100%,87%)" /><rect x="10" y="21" width="1" height="1" fill="hsl(150,100%,87%)" /><rect x="11" y="21" width="1" height="1" fill="hsl(165,100%,87%)" /><rect x="12" y="21" width="1" height="1" fill="hsl(180,100%,87%)" /><rect x="13" y="21" width="1" height="1" fill="hsl(195,100%,87%)" /><rect x="14" y="21" width="1" height="1" fill="hsl(210,100%,87%)" /><rect x="15" y="21" width="1" height="1" fill="hsl(225,100%,87%)" /><rect x="16" y="21" width="1" height="1" fill="hsl(240,100%,87%)" /><rect x="17" y="21" width="1" height="1" fill="hsl(255,100%,87%)" /><rect x="18" y="21" width="1" height="1" fill="hsl(270,100%,87%)" /><rect x="19" y="21" width="1" height="1" fill="hsl(285,100%,87%)" /><rect x="20" y="21" width="1" height="1" fill="hsl(300,100%,87%)" /><rect x="21" y="21" width="1" height="1" fill="hsl(315,100%,87%)" /><rect x="22" y="21" width="1" height="1" fill="hsl(330,100%,87%)" /><rect x="23" y="21" width="1" height="1" fill="hsl(345,100%,87%)" /><rect x="0" y="22" width="1" height="1" fill="hsl(0,100%,91%)" /><rect x="1" y="22" width="1" height="1" fill="hsl(15,100%,91%)" /><rect x="2" y="22" width="1" height="1" fill="hsl(30,100%,91%)" /><rect x="3" y="22" width="1" height="1" fill="hsl(45,100%,91%)" /><rect x="4" y="22" width="1" height="1" fill="hsl(60,100%,91%)" /><rect x="5" y="22" width="1" height="1" fill="hsl(75,100%,91%)" /><rect x="6" y="22" width="1" height="1" fill="hsl(90,100%,91%)" /><rect x="7" y="22" width="1" height="1" fill="hsl(105,100%,91%)" /><rect x="8" y="22" width="1" height="1" fill="hsl(120,100%,91%)" /><rect x="9" y="22" width="1" height="1" fill="hsl(135,100%,91%)" /><rect x="10" y="22" width="1" height="1" fill="hsl(150,100%,91%)" /><rect x="11" y="22" width="1" height="1" fill="hsl(165,100%,91%)" /><rect x="12" y="22" width="1" height="1" fill="hsl(180,100%,91%)" /><rect x="13" y="22" width="1" height="1" fill="hsl(195,100%,91%)" /><rect x="14" y="22" width="1" height="1" fill="hsl(210,100%,91%)" /><rect x="15" y="22" width="1" height="1" fill="hsl(225,100%,91%)" /><rect x="16" y="22" width="1" height="1" fill="hsl(240,100%,91%)" /><rect x="17" y="22" width="1" height="1" fill="hsl(255,100%,91%)" /><rect x="18" y="22" width="1" height="1" fill="hsl(270,100%,91%)" /><rect x="19" y="22" width="1" height="1" fill="hsl(285,100%,91%)" /><rect x="20" y="22" width="1" height="1" fill="hsl(300,100%,91%)" /><rect x="21" y="22" width="1" height="1" fill="hsl(315,100%,91%)" /><rect x="22" y="22" width="1" height="1" fill="hsl(330,100%,91%)" /><rect x="23" y="22" width="1" height="1" fill="hsl(345,100%,91%)" /><rect x="0" y="23" width="1" height="1" fill="hsl(0,100%,95%)" /><rect x="1" y="23" width="1" height="1" fill="hsl(15,100%,95%)" /><rect x="2" y="23" width="1" height="1" fill="hsl(30,100%,95%)" /><rect x="3" y="23" width="1" height="1" fill="hsl(45,100%,95%)" /><rect x="4" y="23" width="1" height="1" fill="hsl(60,100%,95%)" /><rect x="5" y="23" width="1" height="1" fill="hsl(75,100%,95%)" /><rect x="6" y="23" width="1" height="1" fill="hsl(90,100%,95%)" /><rect x="7" y="23" width="1" height="1" fill="hsl(105,100%,95%)" /><rect x="8" y="23" width="1" height="1" fill="hsl(120,100%,95%)" /><rect x="9" y="23" width="1" height="1" fill="hsl(135,100%,95%)" /><rect x="10" y="23" width="1" height="1" fill="hsl(150,100%,95%)" /><rect x="11" y="23" width="1" height="1" fill="hsl(165,100%,95%)" /><rect x="12" y="23" width="1" height="1" fill="hsl(180,100%,95%)" /><rect x="13" y="23" width="1" height="1" fill="hsl(195,100%,95%)" /><rect x="14" y="23" width="1" height="1" fill="hsl(210,100%,95%)" /><rect x="15" y="23" width="1" height="1" fill="hsl(225,100%,95%)" /><rect x="16" y="23" width="1" height="1" fill="hsl(240,100%,95%)" /><rect x="17" y="23" width="1" height="1" fill="hsl(255,100%,95%)" /><rect x="18" y="23" width="1" height="1" fill="hsl(270,100%,95%)" /><rect x="19" y="23" width="1" height="1" fill="hsl(285,100%,95%)" /><rect x="20" y="23" width="1" height="1" fill="hsl(300,100%,95%)" /><rect x="21" y="23" width="1" height="1" fill="hsl(315,100%,95%)" /><rect x="22" y="23" width="1" height="1" fill="hsl(330,100%,95%)" /><rect x="23" y="23" width="1" height="1" fill="hsl(345,100%,95%)" /></svg>
