<?xml version="1.0" encoding="UTF-8" standalone="no"?>
<!-- Created with Inkscape (http://www.inkscape.org/) -->

<svg
   xmlns:dc="http://purl.org/dc/elements/1.1/"
   xmlns:cc="http://creativecommons.org/ns#"
   xmlns:rdf="http://www.w3.org/1999/02/22-rdf-syntax-ns#"
   xmlns:svg="http://www.w3.org/2000/svg"
   xmlns="http://www.w3.org/2000/svg"
   xmlns:xlink="http://www.w3.org/1999/xlink"
   version="1.0"
   width="128"
   height="128"
   id="svg2606">
  <defs
     id="defs2608">
    <linearGradient
       id="linearGradient3342">
      <stop
         id="stop3344"
         style="stop-color:#000000;stop-opacity:1"
         offset="0" />
      <stop
         id="stop3347"
         style="stop-color:#000000;stop-opacity:0"
         offset="1" />
    </linearGradient>
    <linearGradient
       id="linearGradient3326">
      <stop
         id="stop3328"
         style="stop-color:#000000;stop-opacity:1"
         offset="0" />
      <stop
         id="stop3330"
         style="stop-color:#000000;stop-opacity:0"
         offset="1" />
    </linearGradient>
    <linearGradient
       id="linearGradient3825">
      <stop
         id="stop3827"
         style="stop-color:#ffffff;stop-opacity:0"
         offset="0" />
      <stop
         id="stop3833"
         style="stop-color:#ffffff;stop-opacity:0.18705036"
         offset="0.5" />
      <stop
         id="stop3829"
         style="stop-color:#ffffff;stop-opacity:1"
         offset="1" />
    </linearGradient>
    <linearGradient
       id="linearGradient3751">
      <stop
         id="stop3753"
         style="stop-color:#beba2c;stop-opacity:1"
         offset="0" />
      <stop
         id="stop3755"
         style="stop-color:#b6be2c;stop-opacity:0"
         offset="1" />
    </linearGradient>
    <linearGradient
       id="linearGradient3528">
      <stop
         id="stop3530"
         style="stop-color:#eaf209;stop-opacity:1"
         offset="0" />
      <stop
         id="stop3532"
         style="stop-color:#c7c634;stop-opacity:0"
         offset="1" />
    </linearGradient>
    <linearGradient
       id="linearGradient3295">
      <stop
         id="stop3297"
         style="stop-color:#fffe63;stop-opacity:1"
         offset="0" />
      <stop
         id="stop3299"
         style="stop-color:#ffffff;stop-opacity:0"
         offset="1" />
    </linearGradient>
    <linearGradient
       id="linearGradient3202">
      <stop
         id="stop3204"
         style="stop-color:#fcff9c;stop-opacity:1"
         offset="0" />
      <stop
         id="stop3206"
         style="stop-color:#c1a965;stop-opacity:0"
         offset="1" />
    </linearGradient>
    <radialGradient
       cx="48"
       cy="-0.2148"
       r="55.147999"
       id="XMLID_4_"
       gradientUnits="userSpaceOnUse"
       gradientTransform="matrix(0.9792,0,0,0.9725,133.0002,20.8762)">
      <stop
         id="stop3082"
         style="stop-color:#cfd13d;stop-opacity:1"
         offset="0" />
      <stop
         id="stop3090"
         style="stop-color:#db8900;stop-opacity:1"
         offset="1" />
    </radialGradient>
    <linearGradient
       id="linearGradient3260">
      <stop
         id="stop3262"
         style="stop-color:#ffffff;stop-opacity:1"
         offset="0" />
      <stop
         id="stop3264"
         style="stop-color:#ffffff;stop-opacity:0"
         offset="1" />
    </linearGradient>
    <linearGradient
       id="linearGradient3344">
      <stop
         id="stop3346"
         style="stop-color:#fdff63;stop-opacity:1"
         offset="0" />
      <stop
         id="stop3348"
         style="stop-color:#ffffff;stop-opacity:0"
         offset="1" />
    </linearGradient>
    <linearGradient
       id="linearGradient3449">
      <stop
         id="stop3451"
         style="stop-color:#000000;stop-opacity:1"
         offset="0" />
      <stop
         id="stop3453"
         style="stop-color:#000000;stop-opacity:0"
         offset="1" />
    </linearGradient>
    <linearGradient
       x1="147.09375"
       y1="33.40625"
       x2="8.083992"
       y2="123.90625"
       id="linearGradient3516"
       xlink:href="#XMLID_4_"
       gradientUnits="userSpaceOnUse" />
    <radialGradient
       cx="67.09375"
       cy="116.90625"
       r="56"
       fx="67.09375"
       fy="116.90625"
       id="radialGradient3524"
       xlink:href="#XMLID_4_"
       gradientUnits="userSpaceOnUse" />
    <radialGradient
       cx="99.726295"
       cy="27.418272"
       r="56"
       fx="64.689766"
       fy="68.231934"
       id="radialGradient3535"
       xlink:href="#linearGradient3528"
       gradientUnits="userSpaceOnUse"
       gradientTransform="matrix(0.693735,0.05867125,-0.0362428,0.4285387,33.939389,26.8809)" />
    <linearGradient
       x1="75.09375"
       y1="4.5317035"
       x2="75.09375"
       y2="80.172485"
       id="linearGradient3548"
       xlink:href="#linearGradient3295"
       gradientUnits="userSpaceOnUse" />
    <linearGradient
       x1="75.09375"
       y1="4.5317035"
       x2="75.09375"
       y2="80.172485"
       id="linearGradient3581"
       xlink:href="#linearGradient3260"
       gradientUnits="userSpaceOnUse"
       gradientTransform="translate(0.00421611,0.00197057)" />
    <linearGradient
       x1="208.59375"
       y1="130.40625"
       x2="208.59375"
       y2="63.426777"
       id="linearGradient3613"
       xlink:href="#linearGradient3295"
       gradientUnits="userSpaceOnUse"
       gradientTransform="translate(-137,0)" />
    <filter
       color-interpolation-filters="sRGB"
       id="filter3639">
      <feGaussianBlur
         id="feGaussianBlur3641"
         stdDeviation="1.0580524" />
    </filter>
    <radialGradient
       cx="-10.165252"
       cy="66.906013"
       r="59.995121"
       fx="-10.165252"
       fy="66.906013"
       id="radialGradient3654"
       xlink:href="#linearGradient3449"
       gradientUnits="userSpaceOnUse"
       gradientTransform="matrix(0.4582893,-2.1035589e-8,4.5903973e-8,1.0000813,20.447953,-0.00519744)" />
    <radialGradient
       cx="167.67001"
       cy="80.404922"
       r="59.995121"
       fx="167.67001"
       fy="80.404922"
       id="radialGradient3658"
       xlink:href="#linearGradient3449"
       gradientUnits="userSpaceOnUse"
       gradientTransform="matrix(0.2676699,0.521376,-0.7037472,0.3612977,108.99386,-36.062981)" />
    <linearGradient
       x1="120.0625"
       y1="12.569496"
       x2="125.30366"
       y2="14.444496"
       id="linearGradient3676"
       xlink:href="#linearGradient3260"
       gradientUnits="userSpaceOnUse"
       spreadMethod="reflect" />
    <filter
       x="-0.15096202"
       y="-0.13732363"
       width="1.301924"
       height="1.2746474"
       color-interpolation-filters="sRGB"
       id="filter3738">
      <feGaussianBlur
         id="feGaussianBlur3740"
         stdDeviation="0.39257441" />
    </filter>
    <radialGradient
       cx="72.684891"
       cy="48.228905"
       r="59.995121"
       fx="74.871155"
       fy="26.862719"
       id="radialGradient3744"
       xlink:href="#linearGradient3449"
       gradientUnits="userSpaceOnUse"
       gradientTransform="matrix(0.982366,0.01671718,-0.00358011,0.2103843,-18.56344,30.477792)" />
    <radialGradient
       cx="66.01458"
       cy="126.69183"
       r="59.995121"
       fx="66.01458"
       fy="126.69183"
       id="radialGradient3757"
       xlink:href="#linearGradient3751"
       gradientUnits="userSpaceOnUse"
       gradientTransform="matrix(0.675025,0,0,0.3583625,19.527377,41.004647)" />
    <radialGradient
       cx="64.088867"
       cy="7.4108429"
       r="59.995121"
       fx="64.088867"
       fy="7.4108429"
       id="radialGradient3767"
       xlink:href="#linearGradient3260"
       gradientUnits="userSpaceOnUse"
       gradientTransform="matrix(0.3093869,0,0,0.4779247,44.260611,3.8644223)" />
    <linearGradient
       x1="120.0625"
       y1="12.569496"
       x2="125.30366"
       y2="14.444496"
       id="linearGradient3771"
       xlink:href="#linearGradient3344"
       gradientUnits="userSpaceOnUse"
       spreadMethod="reflect" />
    <filter
       color-interpolation-filters="sRGB"
       id="filter3438">
      <feGaussianBlur
         id="feGaussianBlur3440"
         stdDeviation="1.3342697" />
    </filter>
    <filter
       color-interpolation-filters="sRGB"
       id="filter3630">
      <feGaussianBlur
         id="feGaussianBlur3632"
         stdDeviation="0.89883985" />
    </filter>
    <radialGradient
       cx="-112.17241"
       cy="118.60459"
       r="59.995121"
       fx="-113.14772"
       fy="59.708473"
       id="radialGradient2361"
       xlink:href="#linearGradient3825"
       gradientUnits="userSpaceOnUse"
       gradientTransform="matrix(0.6484284,0.1017206,-0.03125715,0.1992521,-4.56257,53.15916)" />
    <linearGradient
       x1="-151.43935"
       y1="37.68198"
       x2="-152.26776"
       y2="57.25"
       id="linearGradient2363"
       xlink:href="#linearGradient3326"
       gradientUnits="userSpaceOnUse" />
    <linearGradient
       x1="-132.51041"
       y1="39.803303"
       x2="-158.92462"
       y2="72.881729"
       id="linearGradient2365"
       xlink:href="#linearGradient3326"
       gradientUnits="userSpaceOnUse" />
    <linearGradient
       x1="-83.012932"
       y1="44.753052"
       x2="-158.92462"
       y2="72.881729"
       id="linearGradient2367"
       xlink:href="#linearGradient3326"
       gradientUnits="userSpaceOnUse" />
    <linearGradient
       x1="-73"
       y1="105.625"
       x2="-163"
       y2="86.125"
       id="linearGradient3349"
       xlink:href="#linearGradient3342"
       gradientUnits="userSpaceOnUse" />
    <filter
       x="-0.087741368"
       y="-0.10211017"
       width="1.1754827"
       height="1.2042203"
       color-interpolation-filters="sRGB"
       id="filter3363">
      <feGaussianBlur
         id="feGaussianBlur3365"
         stdDeviation="3.0526685" />
    </filter>
    <linearGradient
       x1="-83.593941"
       y1="137.13324"
       x2="-138.0043"
       y2="92.603989"
       id="linearGradient3372"
       xlink:href="#linearGradient3342"
       gradientUnits="userSpaceOnUse"
       gradientTransform="translate(-40.5,-1.5)" />
    <linearGradient
       x1="-61.802711"
       y1="99.979607"
       x2="-136.51074"
       y2="112.70422"
       id="linearGradient3376"
       xlink:href="#linearGradient3342"
       gradientUnits="userSpaceOnUse"
       gradientTransform="translate(-40.5,-1.5)" />
    <radialGradient
       cx="-112.17241"
       cy="118.60459"
       r="59.995121"
       fx="-113.14772"
       fy="59.708473"
       id="radialGradient3388"
       xlink:href="#linearGradient3825"
       gradientUnits="userSpaceOnUse"
       gradientTransform="matrix(0.6484284,0.1017206,-0.03125715,0.1992521,-4.56257,53.15916)" />
    <linearGradient
       x1="-151.43935"
       y1="37.68198"
       x2="-152.26776"
       y2="57.25"
       id="linearGradient3390"
       xlink:href="#linearGradient3326"
       gradientUnits="userSpaceOnUse" />
    <linearGradient
       x1="-132.51041"
       y1="39.803303"
       x2="-158.92462"
       y2="72.881729"
       id="linearGradient3392"
       xlink:href="#linearGradient3326"
       gradientUnits="userSpaceOnUse" />
    <linearGradient
       x1="-83.012932"
       y1="44.753052"
       x2="-158.92462"
       y2="72.881729"
       id="linearGradient3394"
       xlink:href="#linearGradient3326"
       gradientUnits="userSpaceOnUse" />
    <linearGradient
       x1="-73"
       y1="105.625"
       x2="-163"
       y2="86.125"
       id="linearGradient3396"
       xlink:href="#linearGradient3342"
       gradientUnits="userSpaceOnUse" />
    <linearGradient
       x1="-83.593941"
       y1="137.13324"
       x2="-138.0043"
       y2="92.603989"
       id="linearGradient3398"
       xlink:href="#linearGradient3342"
       gradientUnits="userSpaceOnUse"
       gradientTransform="translate(-40.5,-1.5)" />
    <linearGradient
       x1="-61.802711"
       y1="99.979607"
       x2="-136.51074"
       y2="112.70422"
       id="linearGradient3400"
       xlink:href="#linearGradient3342"
       gradientUnits="userSpaceOnUse"
       gradientTransform="translate(-40.5,-1.5)" />
    <radialGradient
       cx="-112.17241"
       cy="118.60459"
       r="59.995121"
       fx="-113.14772"
       fy="59.708473"
       id="radialGradient3422"
       xlink:href="#linearGradient3825"
       gradientUnits="userSpaceOnUse"
       gradientTransform="matrix(0.6484284,0.1017206,-0.03125715,0.1992521,-4.56257,53.15916)" />
    <linearGradient
       x1="-151.43935"
       y1="37.68198"
       x2="-152.26776"
       y2="57.25"
       id="linearGradient3424"
       xlink:href="#linearGradient3326"
       gradientUnits="userSpaceOnUse" />
    <linearGradient
       x1="-132.51041"
       y1="39.803303"
       x2="-158.92462"
       y2="72.881729"
       id="linearGradient3426"
       xlink:href="#linearGradient3326"
       gradientUnits="userSpaceOnUse" />
    <linearGradient
       x1="-83.012932"
       y1="44.753052"
       x2="-158.92462"
       y2="72.881729"
       id="linearGradient3428"
       xlink:href="#linearGradient3326"
       gradientUnits="userSpaceOnUse" />
    <linearGradient
       x1="-73"
       y1="105.625"
       x2="-163"
       y2="86.125"
       id="linearGradient3430"
       xlink:href="#linearGradient3342"
       gradientUnits="userSpaceOnUse" />
    <linearGradient
       x1="-83.593941"
       y1="137.13324"
       x2="-138.0043"
       y2="92.603989"
       id="linearGradient3432"
       xlink:href="#linearGradient3342"
       gradientUnits="userSpaceOnUse"
       gradientTransform="translate(-40.5,-1.5)" />
    <linearGradient
       x1="-61.802711"
       y1="99.979607"
       x2="-136.51074"
       y2="112.70422"
       id="linearGradient3434"
       xlink:href="#linearGradient3342"
       gradientUnits="userSpaceOnUse"
       gradientTransform="translate(-40.5,-1.5)" />
    <mask
       id="mask3402">
      <g
         transform="translate(167.50257,-0.00375516)"
         id="g3404">
        <g
           transform="translate(80.51637,30.885255)"
           id="g3406">
          <path
             d="m -184.42232,-32.47243 c -33.12519,0 -64,32.374805 -64,65.5 0,33.12519 31.37481,64 64.5,64 30.28912,0 55.33661,-26.21626 59.40625,-55.34375 l -35.03125,-5.03125 c -1.62468,11.96113 -11.93007,20.96875 -24.375,20.96875 -13.57163,0 -22.09375,-11.52212 -22.09375,-25.09375 0,-13.571634 6.02212,-20.09375 19.59375,-20.09375 6.78582,-1e-6 9.92129,-2.234956 14.375,2.21875 l -4.82718,11.327179 c -2.05587,2.05587 -2.24372,3.30578 -1.67961,4.615529 0.50857,1.180779 1.52073,2.526042 4.20973,2.526042 l 43.95331,0 c 3.84589,0 6.45899,-2.654379 6.45899,-6.250131 l -0.0689,-44.078018 c 0,-2.480755 -0.90251,-3.843229 -2.18147,-4.349615 -1.31432,-0.520385 -3.03321,-0.122678 -5.10709,1.9512 l -10.19531,0.195314 c -10.85935,-10.859351 -26.3749,-13.0625 -42.9375,-13.0625 z"
             id="path3408"
             style="fill:url(#radialGradient3422);fill-opacity:1;stroke:none" />
          <path
             d="M -161.5,34.5 C -162,37 -180,54 -180,54 l 47.5,26 20.5,-41.5 -49.5,-4 z"
             id="path3410"
             style="fill:url(#linearGradient3424);fill-opacity:1;fill-rule:evenodd;stroke:none;filter:url(#filter3438)" />
          <path
             d="m -161.5,34.5 c -0.5,2.5 -19.77817,19.889087 -19.77817,19.889087 L -151.62742,97.591883 -112,38.5 l -49.5,-4 z"
             id="path3412"
             style="fill:url(#linearGradient3426);fill-opacity:1;fill-rule:evenodd;stroke:none;filter:url(#filter3438)" />
          <path
             d="m -161.5,34.5 c -0.5,2.5 -19.77817,19.889087 -19.77817,19.889087 L -151.62742,97.591883 -112,38.5 l -49.5,-4 z"
             id="path3414"
             style="fill:url(#linearGradient3428);fill-opacity:1;fill-rule:evenodd;stroke:none;filter:url(#filter3438)" />
        </g>
        <rect
           width="83.5"
           height="71.75"
           x="-119"
           y="69.75"
           id="rect3416"
           style="fill:url(#linearGradient3430);fill-opacity:1;stroke:none;filter:url(#filter3363)" />
        <path
           d="M -159.5,68.25 -39.138259,55.983708 -93.453327,162.55286 -197.79465,128.96507 -159.5,68.25 z"
           transform="matrix(0.6393762,0.7688941,-0.7688941,0.6393762,37.597642,128.08723)"
           id="path3418"
           style="fill:url(#linearGradient3432);fill-opacity:1;stroke:none;filter:url(#filter3363)" />
        <path
           d="M -159.5,68.25 -39.138259,55.983708 -93.453327,162.55286 -197.79465,128.96507 -159.5,68.25 z"
           transform="matrix(0.6393762,0.7688941,-0.7688941,0.6393762,37.597642,128.08723)"
           id="path3420"
           style="fill:url(#linearGradient3434);fill-opacity:1;stroke:none;filter:url(#filter3363)" />
      </g>
    </mask>
    <linearGradient
       x1="-267.47665"
       y1="18.103027"
       x2="-33.476654"
       y2="18.103027"
       id="linearGradient3565"
       xlink:href="#linearGradient3751"
       gradientUnits="userSpaceOnUse" />
    <linearGradient
       x1="208.59375"
       y1="130.40625"
       x2="208.59375"
       y2="63.426777"
       id="linearGradient3567"
       xlink:href="#linearGradient3295"
       gradientUnits="userSpaceOnUse"
       gradientTransform="translate(-137,0)" />
  </defs>
  <metadata
     id="metadata2611">
    <rdf:RDF>
      <cc:Work
         rdf:about="">
        <dc:format>image/svg+xml</dc:format>
        <dc:type
           rdf:resource="http://purl.org/dc/dcmitype/StillImage" />
        <dc:title></dc:title>
      </cc:Work>
    </rdf:RDF>
  </metadata>
  <g
     id="layer1">
    <g
       transform="matrix(-1,0,0,1,128.17774,0)"
       mask="url(#mask3402)"
       id="g3835">
      <path
         d="m 64.09375,3.90625 c -33.125192,-10e-8 -60.0000001,26.874805 -60,60 1e-7,33.125192 26.87481,60 60,60 30.289116,0 55.33661,-22.21626 59.40625,-51.34375 L 88.46875,67.53125 C 86.844066,79.492379 76.538676,88.5 64.09375,88.5 50.522122,88.499999 39.5,77.477881 39.5,63.90625 39.500001,50.334616 50.522119,39.3125 64.09375,39.3125 c 6.785818,-10e-7 12.921294,2.765044 17.375,7.21875 L 71.141571,56.858429 c -2.05587,2.05587 -2.243725,3.30578 -1.679608,4.615529 C 69.970531,62.654737 70.982695,64 73.671688,64 L 117.625,64 c 3.84589,0 6.45899,-2.654379 6.45899,-6.250131 l -0.0689,-44.078018 c 0,-2.480755 -0.90251,-3.8432292 -2.18147,-4.3496147 -1.31432,-0.5203849 -3.03321,-0.1226787 -5.10709,1.9511997 L 106.53125,21.46875 C 95.671902,10.609399 80.656349,3.90625 64.09375,3.90625 z"
         id="rect3204"
         style="fill:url(#linearGradient3516);fill-opacity:1;stroke:none" />
      <path
         d="m 64.09375,3.90625 c -33.125192,-10e-8 -60.0000001,26.874805 -60,60 1e-7,33.125192 26.87481,60 60,60 30.289116,0 55.33661,-22.21626 59.40625,-51.34375 L 88.46875,67.53125 C 86.844066,79.492379 76.538676,88.5 64.09375,88.5 50.522122,88.499999 39.5,77.477881 39.5,63.90625 39.500001,50.334616 50.522119,39.3125 64.09375,39.3125 c 6.785818,-10e-7 12.921294,2.765044 17.375,7.21875 L 71.141571,56.858429 c -2.05587,2.05587 -2.243725,3.30578 -1.679608,4.615529 C 69.970531,62.654737 70.982695,64 73.671688,64 L 117.625,64 c 3.84589,0 6.45899,-2.654379 6.45899,-6.250131 l -0.0689,-44.078018 c 0,-2.480755 -0.90251,-3.8432292 -2.18147,-4.3496147 -1.31432,-0.5203849 -3.03321,-0.1226787 -5.10709,1.9511997 L 106.53125,21.46875 C 95.671902,10.609399 80.656349,3.90625 64.09375,3.90625 z"
         id="path3749"
         style="opacity:0.79775277;fill:url(#radialGradient3757);fill-opacity:1;stroke:none" />
      <path
         d="m 64.09375,3.90625 c -33.125192,-10e-8 -60.0000001,26.874805 -60,60 1e-7,33.125192 26.87481,60 60,60 30.289116,0 55.33661,-22.21626 59.40625,-51.34375 L 88.46875,67.53125 C 86.844066,79.492379 76.538676,88.5 64.09375,88.5 50.522122,88.499999 39.5,77.477881 39.5,63.90625 39.500001,50.334616 50.522119,39.3125 64.09375,39.3125 c 6.785818,-10e-7 12.921294,2.765044 17.375,7.21875 L 71.141571,56.858429 c -2.05587,2.05587 -2.243725,3.30578 -1.679608,4.615529 C 69.970531,62.654737 70.982695,64 73.671688,64 L 117.625,64 c 3.84589,0 6.45899,-2.654379 6.45899,-6.250131 l -0.0689,-44.078018 c 0,-2.480755 -0.90251,-3.8432292 -2.18147,-4.3496147 -1.31432,-0.5203849 -3.03321,-0.1226787 -5.10709,1.9511997 L 106.53125,21.46875 C 95.671902,10.609399 80.656349,3.90625 64.09375,3.90625 z"
         id="path3656"
         style="opacity:0.68913861;fill:url(#radialGradient3658);fill-opacity:1;stroke:none" />
      <path
         d="m 64.09375,3.90625 c -33.125192,-10e-8 -60.0000001,26.874805 -60,60 1e-7,33.125192 26.87481,60 60,60 30.289116,0 55.33661,-22.21626 59.40625,-51.34375 L 88.46875,67.53125 C 86.844066,79.492379 76.538676,88.5 64.09375,88.5 50.522122,88.499999 39.5,77.477881 39.5,63.90625 39.500001,50.334616 50.522119,39.3125 64.09375,39.3125 c 6.785818,-10e-7 12.921294,2.765044 17.375,7.21875 L 71.141571,56.858429 c -2.05587,2.05587 -2.243725,3.30578 -1.679608,4.615529 C 69.970531,62.654737 70.982695,64 73.671688,64 L 117.625,64 c 3.84589,0 6.45899,-2.654379 6.45899,-6.250131 l -0.0689,-44.078018 c 0,-2.480755 -0.90251,-3.8432292 -2.18147,-4.3496147 -1.31432,-0.5203849 -3.03321,-0.1226787 -5.10709,1.9511997 L 106.53125,21.46875 C 95.671902,10.609399 80.656349,3.90625 64.09375,3.90625 z"
         id="path3643"
         style="fill:url(#radialGradient3654);fill-opacity:1;stroke:none" />
      <path
         d="m 64.09375,3.90625 c -33.125192,-10e-8 -60.0000001,26.874805 -60,60 1e-7,33.125192 26.87481,60 60,60 30.289116,0 55.33661,-22.21626 59.40625,-51.34375 L 88.46875,67.53125 C 86.844066,79.492379 76.538676,88.5 64.09375,88.5 50.522122,88.499999 39.5,77.477881 39.5,63.90625 39.500001,50.334616 50.522119,39.3125 64.09375,39.3125 c 6.785818,-10e-7 12.921294,2.765044 17.375,7.21875 L 71.141571,56.858429 c -2.05587,2.05587 -2.243725,3.30578 -1.679608,4.615529 C 69.970531,62.654737 70.982695,64 73.671688,64 L 117.625,64 c 3.84589,0 6.45899,-2.654379 6.45899,-6.250131 l -0.0689,-44.078018 c 0,-2.480755 -0.90251,-3.8432292 -2.18147,-4.3496147 -1.31432,-0.5203849 -3.03321,-0.1226787 -5.10709,1.9511997 L 106.53125,21.46875 C 95.671902,10.609399 80.656349,3.90625 64.09375,3.90625 z"
         id="path3742"
         style="opacity:0.79775277;fill:url(#radialGradient3744);fill-opacity:1;stroke:none" />
      <path
         d="m 64.09375,4.20625 c -33.125192,-10e-8 -60.0000001,26.574805 -60,59.7 1e-7,33.125192 26.87481,60 60,60 30.289116,0 55.33661,-22.21626 59.40625,-51.34375 L 88.46875,67.53125 C 86.844066,79.492379 76.538676,88.5 64.09375,88.5 50.522122,88.499999 39.5,77.477881 39.5,63.90625 39.500001,50.334616 50.522119,39.3125 64.09375,39.3125 c 6.785818,-10e-7 12.921294,2.765044 17.375,7.21875 L 71.141571,56.858429 c -2.05587,2.05587 -2.243725,3.30578 -1.679608,4.615529 C 69.970531,62.654737 70.982695,64 73.671688,64 L 117.625,64 c 3.84589,0 6.45899,-2.654379 6.45899,-6.250131 l -0.0689,-44.078018 c 0,-2.480755 -0.90251,-3.8432292 -2.18147,-4.3496147 -1.31432,-0.5203849 -3.03321,-0.1226787 -5.10709,1.9511997 L 106.53125,21.46875 C 95.671902,10.609399 80.656349,4.20625 64.09375,4.20625 z"
         id="path3759"
         style="opacity:0.74531836;fill:url(#radialGradient3767);fill-opacity:1;stroke:none;filter:url(#filter3630)" />
      <path
         d="m 117.6875,10.75 0.9375,4.375 1.25,0.875 4,-2.625 c 0.24688,-1.723751 -0.35117,-3.347429 -1.9375,-4.0000001 -1.58634,-0.6525714 -3.16128,0.1267033 -4.25,1.3750001 z"
         id="path3660"
         style="opacity:0.82022472;fill:url(#linearGradient3676);fill-opacity:1;fill-rule:evenodd;stroke:none;filter:url(#filter3738)" />
      <path
         d="m 117.6875,10.75 2.1875,3.125 0.5,-0.125 3.5,-0.375 c 0.24688,-1.723751 -0.35117,-3.347429 -1.9375,-4.0000001 -1.58634,-0.6525714 -3.16128,0.1267033 -4.25,1.3750001 z"
         transform="matrix(0,1,1,0,60.363582,-60.363586)"
         id="path3769"
         style="opacity:0.82022472;fill:url(#linearGradient3771);fill-opacity:1;fill-rule:evenodd;stroke:none;filter:url(#filter3738)" />
      <path
         d="m 64.09375,7.90625 c -30.961698,-1e-7 -56.0000001,25.038299 -56,56 10e-8,30.961698 25.038304,56 56,56 26.932896,0 49.12173,-18.80675 54.53125,-44 L 91.5,72.03125 C 88.061436,83.928551 77.059621,92.5 64.09375,92.5 48.356404,92.499999 35.5,79.643599 35.5,63.90625 35.500001,48.168899 48.356402,35.3125 64.09375,35.3125 c 7.872416,-10e-7 15.051554,3.207804 20.21875,8.375 0.759464,0.751409 1.187497,1.775386 1.1875,2.84375 0,1.068364 -0.428036,2.092341 -1.1875,2.84375 L 73.6875,60 117.625,60 c 2.00539,0 2.46875,-0.592164 2.46875,-2.25 L 120,13.65625 109.375,24.3125 c -0.75141,0.759464 -1.77539,1.1875 -2.84375,1.1875 -1.06836,0 -2.09234,-0.428036 -2.84375,-1.1875 C 93.549835,14.174833 79.577106,7.90625 64.09375,7.90625 z"
         id="path3494"
         style="fill:url(#radialGradient3524);fill-opacity:1;stroke:none" />
      <path
         d="m 64.09375,7.90625 c -30.961698,-1e-7 -56.0000001,25.038299 -56,56 10e-8,30.961698 25.038304,56 56,56 26.932896,0 49.12173,-18.80675 54.53125,-44 L 91.5,72.03125 C 88.061436,83.928551 77.059621,92.5 64.09375,92.5 48.356404,92.499999 35.5,79.643599 35.5,63.90625 35.500001,48.168899 48.356402,35.3125 64.09375,35.3125 c 7.872416,-10e-7 15.051554,3.207804 20.21875,8.375 0.759464,0.751409 1.187497,1.775386 1.1875,2.84375 0,1.068364 -0.428036,2.092341 -1.1875,2.84375 L 73.6875,60 117.625,60 c 2.00539,0 2.46875,-0.592164 2.46875,-2.25 L 120,13.65625 109.375,24.3125 c -0.75141,0.759464 -1.77539,1.1875 -2.84375,1.1875 -1.06836,0 -2.09234,-0.428036 -2.84375,-1.1875 C 93.549835,14.174833 79.577106,7.90625 64.09375,7.90625 z"
         id="path3526"
         style="fill:url(#radialGradient3535);fill-opacity:1;stroke:none" />
      <path
         d="m 64.09375,7.90625 c -30.961698,-1e-7 -56.0000001,25.038299 -56,56 0,0.567872 0.014522,1.123731 0.03125,1.6875 5.98947,0.677652 12.141218,1.15013 18.40625,1.40625 -0.270702,-10.459042 3.671609,-20.974916 11.8125,-28.78125 15.339317,-14.708937 39.728563,-14.214319 54.4375,1.125 2.763849,2.882296 4.756602,5.688367 6.5625,9.25 L 78.84375,59 98,59 c 7.9282,-2.026627 15.18621,-3.436967 22.09375,-6.1875 L 120,13.65625 109.375,24.3125 c -0.75141,0.759464 -1.77539,1.1875 -2.84375,1.1875 -1.06836,0 -2.09234,-0.428036 -2.84375,-1.1875 C 93.549835,14.174833 79.577106,7.90625 64.09375,7.90625 z"
         id="path3537"
         style="fill:url(#linearGradient3548);fill-opacity:1;stroke:none" />
      <path
         d="m 64.099866,7.9087646 c -30.96169,-2e-7 -55.9999999,25.0382984 -55.9999999,55.9999994 10e-6,0.178712 -0.00249,0.354295 0,0.53125 C 8.3531061,33.696509 33.295846,8.9087645 64.099866,8.9087646 c 15.48337,-10e-8 29.45608,6.2685824 39.593744,16.4062494 0.75142,0.759465 1.77539,1.1875 2.84375,1.1875 1.06837,10e-7 2.09234,-0.428036 2.84375,-1.1875 l 10.125,-10.15625 0.49375,37.55 c -6.90754,2.75053 -14.56555,3.86086 -22.493744,5.8875 l -18.65625,0.40625 19.15625,0 c 7.928194,-2.02663 15.186204,-3.43697 22.093744,-6.1875 l -0.0937,-38.15625 0,-1 -0.5,0.5 -10.125,10.15625 c -0.7514,0.759465 -1.77539,1.1875 -2.84375,1.1875 -1.06835,10e-7 -2.09234,-0.428036 -2.84375,-1.1875 -0.0105,-0.01047 -0.0208,-0.02079 -0.0312,-0.03125 -0.0524,-0.05229 -0.10367,-0.104166 -0.15625,-0.15625 -0.5738,-0.567871 -1.15087,-1.11515 -1.75,-1.65625 -0.0815,-0.07412 -0.16804,-0.145107 -0.25,-0.21875 C 91.590066,13.342335 78.496526,7.9087646 64.099866,7.9087646 z m -0.65625,19.2187494 c -9.23817,0.25052 -18.40344,3.79268 -25.59375,10.6875 -7.63208,7.318434 -11.12755,17.372917 -11.3125,27.21875 0.23988,-9.80188 4.18042,-19.494066 11.8125,-26.8125 13.31613,-12.7689 33.45333,-14.098057 48.15625,-4.1875 -6.87906,-4.805074 -14.98746,-7.12523 -23.0625,-6.90625 z"
         id="path3553"
         style="fill:url(#linearGradient3581);fill-opacity:1;stroke:none" />
      <path
         d="m 63.59375,7.90625 c -30.9617,-1e-7 -56,25.038299 -56,56 0,30.961698 25.0383,56 56,56 26.9329,0 49.12173,-18.80675 54.53125,-44 L 91,72.03125 C 87.56144,83.928551 76.55962,92.5 63.59375,92.5 47.8564,92.499999 35,79.643599 35,63.90625 35,48.168899 47.8564,35.3125 63.59375,35.3125 c 7.87242,-10e-7 15.05155,3.207804 20.21875,8.375 C 84.57196,44.438909 85,45.462886 85,46.53125 85,47.599614 84.57196,48.623591 83.8125,49.375 L 73.1875,60 117.125,60 c 2.00539,0 2.46875,-0.592164 2.46875,-2.25 L 119.5,13.65625 108.875,24.3125 c -0.75141,0.759464 -1.77539,1.1875 -2.84375,1.1875 -1.06836,0 -2.09234,-0.428036 -2.84375,-1.1875 C 93.04984,14.174833 79.07711,7.90625 63.59375,7.90625 z"
         id="path3603"
         style="fill:none;stroke:url(#linearGradient3567);stroke-width:1;stroke-linecap:round;stroke-linejoin:round;stroke-miterlimit:4;stroke-opacity:1;stroke-dasharray:none;stroke-dashoffset:1.08779998;filter:url(#filter3639)" />
    </g>
  </g>
</svg>
